<svg xmlns="http://www.w3.org/2000/svg" xmlns:v="https://svgstorm.com"
viewBox = "0 0 250 249"
width="250"
height="249">
<g fill="None" fill-opacity="0.0" stroke="#FEFEFE" stroke-opacity="1.00" stroke-width="0.3"><path d="
M 0.00 249.00 
L 250.00 249.00
L 250.00 0.00
L 0.00 0.00
L 0.00 249.00
M 196.00 55.00 
C 196.69 62.60 195.74 70.37 196.00 78.00 C 196.26 85.63 195.99 93.36 196.00 101.00 C 196.01 108.64 196.20 117.47 196.00 125.00 C 195.80 132.53 196.59 140.82 196.00 148.00 C 195.41 155.18 197.37 164.49 196.00 171.00 C 194.63 177.51 199.40 189.60 195.00 194.00
C 190.86 198.14 179.32 194.09 173.00 195.00 C 166.68 195.91 155.74 195.06 149.00 195.00 C 142.26 194.94 131.32 196.07 125.00 195.00 C 118.68 193.93 106.09 198.26 102.00 194.00
C 100.67 179.34 105.07 161.59 101.00 148.00
C 97.68 150.87 90.72 152.09 86.78 153.78 C 82.83 155.46 75.15 158.65 71.32 159.32 C 67.49 159.99 59.16 166.97 56.00 165.00
C 52.82 163.01 55.56 154.11 55.00 150.00 C 54.44 145.89 54.94 137.51 55.00 133.00 C 55.06 128.49 53.36 120.88 57.00 118.00
C 62.52 113.64 72.72 113.84 79.07 110.07 C 85.43 106.31 94.16 104.85 101.00 102.00
C 101.26 101.89 101.65 101.03 102.00 101.00
C 100.69 86.50 100.69 69.50 102.00 55.00
C 106.11 50.73 118.71 55.05 125.00 54.00 C 131.29 52.95 142.28 54.01 149.00 54.00 C 155.72 53.99 166.69 52.96 173.00 54.00 C 179.31 55.04 191.92 50.76 196.00 55.00 Z"/>
</g>
<g fill="None" fill-opacity="0.0" stroke="#ACB6F2" stroke-opacity="1.00" stroke-width="0.3"><path d="
M 102.00 55.00 
C 102.00 54.96 103.00 55.00 103.00 55.00
C 133.67 55.00 164.33 55.00 195.00 55.00
C 195.50 55.00 196.00 55.00 196.00 55.00
C 191.92 50.76 179.31 55.04 173.00 54.00 C 166.69 52.96 155.72 53.99 149.00 54.00 C 142.28 54.01 131.29 52.95 125.00 54.00 C 118.71 55.05 106.11 50.73 102.00 55.00 Z"/>
</g>
<g fill="None" fill-opacity="0.0" stroke="#31409B" stroke-opacity="1.00" stroke-width="0.3"><path d="
M 102.00 101.00 
C 102.50 100.95 103.00 101.00 103.00 101.00
C 104.30 86.60 103.00 71.46 103.00 57.00
C 103.00 56.50 103.23 55.16 103.00 55.00
C 103.00 55.00 102.00 54.96 102.00 55.00
C 100.69 69.50 100.69 86.50 102.00 101.00 Z"/>
</g>
<g fill="None" fill-opacity="0.0" stroke="#03137C" stroke-opacity="1.00" stroke-width="0.3"><path d="
M 103.00 57.00 
C 117.22 58.66 133.10 54.39 148.00 56.00 C 162.90 57.61 178.99 54.79 194.00 56.00
C 194.00 101.67 194.00 147.33 194.00 193.00
C 163.67 193.00 133.33 193.00 103.00 193.00
C 103.00 193.50 103.00 194.00 103.00 194.00
C 133.67 193.99 164.33 194.01 195.00 194.00
C 198.12 147.95 190.84 100.96 195.00 55.00
C 164.33 55.00 133.67 55.00 103.00 55.00
C 103.23 55.16 103.00 56.50 103.00 57.00 Z"/>
</g>
<g fill="None" fill-opacity="0.0" stroke="#8D94DF" stroke-opacity="1.00" stroke-width="0.3"><path d="
M 195.00 194.00 
C 199.40 189.60 194.63 177.51 196.00 171.00 C 197.37 164.49 195.41 155.18 196.00 148.00 C 196.59 140.82 195.80 132.53 196.00 125.00 C 196.20 117.47 196.01 108.64 196.00 101.00 C 195.99 93.36 196.26 85.63 196.00 78.00 C 195.74 70.37 196.69 62.60 196.00 55.00
C 196.00 55.00 195.50 55.00 195.00 55.00
C 190.84 100.96 198.12 147.95 195.00 194.00 Z"/>
</g>
<g fill="None" fill-opacity="0.0" stroke="#011DA4" stroke-opacity="1.00" stroke-width="0.3"><path d="
M 103.00 57.00 
C 103.00 71.46 104.30 86.60 103.00 101.00
C 118.33 101.00 133.67 101.00 149.00 101.00
C 149.00 116.67 149.00 132.33 149.00 148.00
C 133.67 148.00 118.33 148.00 103.00 148.00
C 105.99 161.48 103.00 179.14 103.00 193.00
C 133.33 193.00 163.67 193.00 194.00 193.00
C 194.00 147.33 194.00 101.67 194.00 56.00
C 178.99 54.79 162.90 57.61 148.00 56.00 C 133.10 54.39 117.22 58.66 103.00 57.00 Z"/>
</g>
<g fill="None" fill-opacity="0.0" stroke="#BBC6F9" stroke-opacity="1.00" stroke-width="0.3"><path d="
M 101.00 102.00 
C 105.07 115.60 99.92 132.54 102.00 147.00
C 102.05 147.35 102.65 147.95 103.00 148.00
C 118.33 148.00 133.67 148.00 149.00 148.00
C 149.00 132.33 149.00 116.67 149.00 101.00
C 133.67 101.00 118.33 101.00 103.00 101.00
C 103.00 101.00 102.50 100.95 102.00 101.00
C 101.65 101.03 101.26 101.89 101.00 102.00
M 148.00 102.00 
C 148.00 117.00 148.00 132.00 148.00 147.00
C 133.00 147.00 118.00 147.00 103.00 147.00
C 103.00 132.00 103.00 117.00 103.00 102.00
C 118.00 102.00 133.00 102.00 148.00 102.00 Z"/>
</g>
<g fill="None" fill-opacity="0.0" stroke="#031EA2" stroke-opacity="1.00" stroke-width="0.3"><path d="
M 57.00 118.00 
C 52.44 123.03 57.61 134.39 56.00 141.00 C 54.39 147.61 57.21 158.04 56.00 165.00
C 59.16 166.97 67.49 159.99 71.32 159.32 C 75.15 158.65 82.83 155.46 86.78 153.78 C 90.72 152.09 97.68 150.87 101.00 148.00
C 101.26 147.77 101.95 147.23 102.00 147.00
C 99.92 132.54 105.07 115.60 101.00 102.00
C 94.16 104.85 85.43 106.31 79.07 110.07 C 72.72 113.84 62.52 113.64 57.00 118.00 Z"/>
</g>
<g fill="None" fill-opacity="0.0" stroke="#FEFEFE" stroke-opacity="1.00" stroke-width="0.3"><path d="
M 148.00 102.00 
C 133.00 102.00 118.00 102.00 103.00 102.00
C 103.00 117.00 103.00 132.00 103.00 147.00
C 118.00 147.00 133.00 147.00 148.00 147.00
C 148.00 132.00 148.00 117.00 148.00 102.00 Z"/>
</g>
<g fill="None" fill-opacity="0.0" stroke="#6F7BBA" stroke-opacity="1.00" stroke-width="0.3"><path d="
M 56.00 165.00 
C 57.21 158.04 54.39 147.61 56.00 141.00 C 57.61 134.39 52.44 123.03 57.00 118.00
C 53.36 120.88 55.06 128.49 55.00 133.00 C 54.94 137.51 54.44 145.89 55.00 150.00 C 55.56 154.11 52.82 163.01 56.00 165.00 Z"/>
</g>
<g fill="None" fill-opacity="0.0" stroke="#31409B" stroke-opacity="1.00" stroke-width="0.3"><path d="
M 101.00 148.00 
C 105.07 161.59 100.67 179.34 102.00 194.00
C 102.00 194.04 103.00 194.00 103.00 194.00
C 103.00 194.00 103.00 193.50 103.00 193.00
C 103.00 179.14 105.99 161.48 103.00 148.00
C 102.65 147.95 102.05 147.35 102.00 147.00
C 101.95 147.23 101.26 147.77 101.00 148.00 Z"/>
</g>
<g fill="None" fill-opacity="0.0" stroke="#A9B4E3" stroke-opacity="1.00" stroke-width="0.3"><path d="
M 195.00 194.00 
C 164.33 194.01 133.67 193.99 103.00 194.00
C 103.00 194.00 102.00 194.04 102.00 194.00
C 106.09 198.26 118.68 193.93 125.00 195.00 C 131.32 196.07 142.26 194.94 149.00 195.00 C 155.74 195.06 166.68 195.91 173.00 195.00 C 179.32 194.09 190.86 198.14 195.00 194.00 Z"/>
</g>
<g fill="#FEFEFE" fill-opacity="1.00" stroke="None">
<path d="
M 0.00 249.00 
L 250.00 249.00
L 250.00 0.00
L 0.00 0.00
L 0.00 249.00
M 196.00 55.00 
C 196.69 62.60 195.74 70.37 196.00 78.00 C 196.26 85.63 195.99 93.36 196.00 101.00 C 196.01 108.64 196.20 117.47 196.00 125.00 C 195.80 132.53 196.59 140.82 196.00 148.00 C 195.41 155.18 197.37 164.49 196.00 171.00 C 194.63 177.51 199.40 189.60 195.00 194.00
C 190.86 198.14 179.32 194.09 173.00 195.00 C 166.68 195.91 155.74 195.06 149.00 195.00 C 142.26 194.94 131.32 196.07 125.00 195.00 C 118.68 193.93 106.09 198.26 102.00 194.00
C 100.67 179.34 105.07 161.59 101.00 148.00
C 97.68 150.87 90.72 152.09 86.78 153.78 C 82.83 155.46 75.15 158.65 71.32 159.32 C 67.49 159.99 59.16 166.97 56.00 165.00
C 52.82 163.01 55.56 154.11 55.00 150.00 C 54.44 145.89 54.94 137.51 55.00 133.00 C 55.06 128.49 53.36 120.88 57.00 118.00
C 62.52 113.64 72.72 113.84 79.07 110.07 C 85.43 106.31 94.16 104.85 101.00 102.00
C 101.26 101.89 101.65 101.03 102.00 101.00
C 100.69 86.50 100.69 69.50 102.00 55.00
C 106.11 50.73 118.71 55.05 125.00 54.00 C 131.29 52.95 142.28 54.01 149.00 54.00 C 155.72 53.99 166.69 52.96 173.00 54.00 C 179.31 55.04 191.92 50.76 196.00 55.00 Z"/>
</g>
<g fill="#ACB6F2" fill-opacity="1.00" stroke="None">
<path d="
M 102.00 55.00 
C 102.00 54.96 103.00 55.00 103.00 55.00
C 133.67 55.00 164.33 55.00 195.00 55.00
C 195.50 55.00 196.00 55.00 196.00 55.00
C 191.92 50.76 179.31 55.04 173.00 54.00 C 166.69 52.96 155.72 53.99 149.00 54.00 C 142.28 54.01 131.29 52.95 125.00 54.00 C 118.71 55.05 106.11 50.73 102.00 55.00 Z"/>
</g>
<g fill="#31409B" fill-opacity="1.00" stroke="None">
<path d="
M 102.00 101.00 
C 102.50 100.95 103.00 101.00 103.00 101.00
C 104.30 86.60 103.00 71.46 103.00 57.00
C 103.00 56.50 103.23 55.16 103.00 55.00
C 103.00 55.00 102.00 54.96 102.00 55.00
C 100.69 69.50 100.69 86.50 102.00 101.00 Z"/>
</g>
<g fill="#03137C" fill-opacity="1.00" stroke="None">
<path d="
M 103.00 57.00 
C 117.22 58.66 133.10 54.39 148.00 56.00 C 162.90 57.61 178.99 54.79 194.00 56.00
C 194.00 101.67 194.00 147.33 194.00 193.00
C 163.67 193.00 133.33 193.00 103.00 193.00
C 103.00 193.50 103.00 194.00 103.00 194.00
C 133.67 193.99 164.33 194.01 195.00 194.00
C 198.12 147.95 190.84 100.96 195.00 55.00
C 164.33 55.00 133.67 55.00 103.00 55.00
C 103.23 55.16 103.00 56.50 103.00 57.00 Z"/>
</g>
<g fill="#8D94DF" fill-opacity="1.00" stroke="None">
<path d="
M 195.00 194.00 
C 199.40 189.60 194.63 177.51 196.00 171.00 C 197.37 164.49 195.41 155.18 196.00 148.00 C 196.59 140.82 195.80 132.53 196.00 125.00 C 196.20 117.47 196.01 108.64 196.00 101.00 C 195.99 93.36 196.26 85.63 196.00 78.00 C 195.74 70.37 196.69 62.60 196.00 55.00
C 196.00 55.00 195.50 55.00 195.00 55.00
C 190.84 100.96 198.12 147.95 195.00 194.00 Z"/>
</g>
<g fill="#011DA4" fill-opacity="1.00" stroke="None">
<path d="
M 103.00 57.00 
C 103.00 71.46 104.30 86.60 103.00 101.00
C 118.33 101.00 133.67 101.00 149.00 101.00
C 149.00 116.67 149.00 132.33 149.00 148.00
C 133.67 148.00 118.33 148.00 103.00 148.00
C 105.99 161.48 103.00 179.14 103.00 193.00
C 133.33 193.00 163.67 193.00 194.00 193.00
C 194.00 147.33 194.00 101.67 194.00 56.00
C 178.99 54.79 162.90 57.61 148.00 56.00 C 133.10 54.39 117.22 58.66 103.00 57.00 Z"/>
</g>
<g fill="#BBC6F9" fill-opacity="1.00" stroke="None">
<path d="
M 101.00 102.00 
C 105.07 115.60 99.92 132.54 102.00 147.00
C 102.05 147.35 102.65 147.95 103.00 148.00
C 118.33 148.00 133.67 148.00 149.00 148.00
C 149.00 132.33 149.00 116.67 149.00 101.00
C 133.67 101.00 118.33 101.00 103.00 101.00
C 103.00 101.00 102.50 100.95 102.00 101.00
C 101.65 101.03 101.26 101.89 101.00 102.00
M 148.00 102.00 
C 148.00 117.00 148.00 132.00 148.00 147.00
C 133.00 147.00 118.00 147.00 103.00 147.00
C 103.00 132.00 103.00 117.00 103.00 102.00
C 118.00 102.00 133.00 102.00 148.00 102.00 Z"/>
</g>
<g fill="#031EA2" fill-opacity="1.00" stroke="None">
<path d="
M 57.00 118.00 
C 52.44 123.03 57.61 134.39 56.00 141.00 C 54.39 147.61 57.21 158.04 56.00 165.00
C 59.16 166.97 67.49 159.99 71.32 159.32 C 75.15 158.65 82.83 155.46 86.78 153.78 C 90.72 152.09 97.68 150.87 101.00 148.00
C 101.26 147.77 101.95 147.23 102.00 147.00
C 99.92 132.54 105.07 115.60 101.00 102.00
C 94.16 104.85 85.43 106.31 79.07 110.07 C 72.72 113.84 62.52 113.64 57.00 118.00 Z"/>
</g>
<g fill="#FEFEFE" fill-opacity="1.00" stroke="None">
<path d="
M 148.00 102.00 
C 133.00 102.00 118.00 102.00 103.00 102.00
C 103.00 117.00 103.00 132.00 103.00 147.00
C 118.00 147.00 133.00 147.00 148.00 147.00
C 148.00 132.00 148.00 117.00 148.00 102.00 Z"/>
</g>
<g fill="#6F7BBA" fill-opacity="1.00" stroke="None">
<path d="
M 56.00 165.00 
C 57.21 158.04 54.39 147.61 56.00 141.00 C 57.61 134.39 52.44 123.03 57.00 118.00
C 53.36 120.88 55.06 128.49 55.00 133.00 C 54.94 137.51 54.44 145.89 55.00 150.00 C 55.56 154.11 52.82 163.01 56.00 165.00 Z"/>
</g>
<g fill="#31409B" fill-opacity="1.00" stroke="None">
<path d="
M 101.00 148.00 
C 105.07 161.59 100.67 179.34 102.00 194.00
C 102.00 194.04 103.00 194.00 103.00 194.00
C 103.00 194.00 103.00 193.50 103.00 193.00
C 103.00 179.14 105.99 161.48 103.00 148.00
C 102.65 147.95 102.05 147.35 102.00 147.00
C 101.95 147.23 101.26 147.77 101.00 148.00 Z"/>
</g>
<g fill="#A9B4E3" fill-opacity="1.00" stroke="None">
<path d="
M 195.00 194.00 
C 164.33 194.01 133.67 193.99 103.00 194.00
C 103.00 194.00 102.00 194.04 102.00 194.00
C 106.09 198.26 118.68 193.93 125.00 195.00 C 131.32 196.07 142.26 194.94 149.00 195.00 C 155.74 195.06 166.68 195.91 173.00 195.00 C 179.32 194.09 190.86 198.14 195.00 194.00 Z"/>
</g>
</svg>